<svg width="211" height="40" viewBox="0 0 211 40" fill="none" xmlns="http://www.w3.org/2000/svg">
<path d="M13.824 31.608C11.712 31.608 9.86667 31.2453 8.288 30.52C6.73067 29.7733 5.44 28.8027 4.416 27.608C3.392 26.392 2.624 25.0907 2.112 23.704C1.62133 22.296 1.376 20.9307 1.376 19.608V18.904C1.376 17.4533 1.632 16.024 2.144 14.616C2.67733 13.208 3.46667 11.928 4.512 10.776C5.55733 9.60267 6.85867 8.67467 8.416 7.992C9.97333 7.288 11.776 6.936 13.824 6.936C15.872 6.936 17.6747 7.288 19.232 7.992C20.7893 8.67467 22.0907 9.60267 23.136 10.776C24.1813 11.928 24.9707 13.208 25.504 14.616C26.0373 16.024 26.304 17.4533 26.304 18.904V19.608C26.304 20.9307 26.048 22.296 25.536 23.704C25.024 25.0907 24.256 26.392 23.232 27.608C22.208 28.8027 20.9067 29.7733 19.328 30.52C17.7707 31.2453 15.936 31.608 13.824 31.608ZM13.824 26.712C15.296 26.712 16.5653 26.3813 17.632 25.72C18.72 25.0587 19.552 24.1627 20.128 23.032C20.704 21.9013 20.992 20.6533 20.992 19.288C20.992 17.8373 20.6933 16.5573 20.096 15.448C19.52 14.3173 18.6987 13.432 17.632 12.792C16.5653 12.152 15.296 11.832 13.824 11.832C12.352 11.832 11.0827 12.152 10.016 12.792C8.94933 13.432 8.128 14.3173 7.552 15.448C6.976 16.5573 6.688 17.8373 6.688 19.288C6.688 20.6533 6.976 21.9013 7.552 23.032C8.128 24.1627 8.94933 25.0587 10.016 25.72C11.0827 26.3813 12.352 26.712 13.824 26.712ZM55.7523 11.736C54.7709 11.736 54.0563 11.4907 53.6083 11C53.1603 10.488 52.9363 9.848 52.9363 9.08C52.9363 8.29066 53.1603 7.65066 53.6083 7.16C54.0563 6.648 54.7709 6.392 55.7523 6.392C56.7123 6.392 57.4163 6.648 57.8643 7.16C58.3123 7.65066 58.5363 8.29066 58.5363 9.08C58.5363 9.848 58.3123 10.488 57.8643 11C57.4163 11.4907 56.7123 11.736 55.7523 11.736ZM30.3443 31V17.368H28.2963V13.624H30.3443V12.984C30.3443 8.97333 32.6056 6.968 37.1283 6.968H38.7603V10.84H36.9043C35.7096 10.84 35.1123 11.448 35.1123 12.664V13.624H41.8323V13.176C41.8323 9.16533 44.1043 7.16 48.6483 7.16H50.7283V11.032H48.4243C47.2083 11.032 46.6003 11.64 46.6003 12.856V13.624H50.2803V17.368H46.6003V31H41.8323V17.368H35.1123V31H30.3443ZM53.7363 31V17.24H51.6883V13.464H58.8883V31H53.7363ZM71.458 31.608C69.9433 31.608 68.6207 31.3627 67.49 30.872C66.3807 30.36 65.4527 29.6773 64.706 28.824C63.9593 27.9707 63.4047 27.0107 63.042 25.944C62.6793 24.856 62.498 23.736 62.498 22.584V21.976C62.498 20.376 62.8287 18.8827 63.49 17.496C64.1727 16.1093 65.1753 14.9893 66.498 14.136C67.842 13.2827 69.4847 12.856 71.426 12.856C73.0047 12.856 74.402 13.1653 75.618 13.784C76.834 14.3813 77.8047 15.224 78.53 16.312C79.2553 17.4 79.6607 18.648 79.746 20.056H74.722C74.6367 19.2667 74.3167 18.6053 73.762 18.072C73.2073 17.5173 72.4287 17.24 71.426 17.24C70.1247 17.24 69.1647 17.7093 68.546 18.648C67.9273 19.5653 67.618 20.7813 67.618 22.296C67.618 23.7253 67.906 24.9093 68.482 25.848C69.0793 26.7653 70.0713 27.224 71.458 27.224C72.482 27.224 73.282 26.9573 73.858 26.424C74.434 25.8907 74.7753 25.1867 74.882 24.312H79.874C79.7887 25.7627 79.3727 27.0427 78.626 28.152C77.9007 29.24 76.9087 30.0933 75.65 30.712C74.4127 31.3093 73.0153 31.608 71.458 31.608ZM91.1805 31.608C89.6872 31.608 88.3645 31.352 87.2125 30.84C86.0818 30.328 85.1325 29.6453 84.3645 28.792C83.5965 27.9173 83.0205 26.9467 82.6365 25.88C82.2525 24.792 82.0605 23.6827 82.0605 22.552V21.912C82.0605 20.76 82.2525 19.64 82.6365 18.552C83.0205 17.464 83.5965 16.4933 84.3645 15.64C85.1325 14.7867 86.0605 14.1147 87.1485 13.624C88.2578 13.112 89.5378 12.856 90.9885 12.856C92.8658 12.856 94.4445 13.2827 95.7245 14.136C97.0258 14.968 98.0178 16.0667 98.7005 17.432C99.3832 18.7973 99.7245 20.2693 99.7245 21.848V23.576H86.8925C87.0632 24.7707 87.4898 25.72 88.1725 26.424C88.8765 27.1067 89.8792 27.448 91.1805 27.448C92.0978 27.448 92.8552 27.2773 93.4525 26.936C94.0712 26.5733 94.4872 26.1147 94.7005 25.56H99.4045C99.0205 27.352 98.0925 28.8133 96.6205 29.944C95.1698 31.0533 93.3565 31.608 91.1805 31.608ZM90.9885 17.016C89.8792 17.016 88.9725 17.336 88.2685 17.976C87.5858 18.5947 87.1485 19.4907 86.9565 20.664H94.8285C94.6578 19.4907 94.2418 18.5947 93.5805 17.976C92.9405 17.336 92.0765 17.016 90.9885 17.016Z" fill="#222222"/>
<path d="M114.344 31.608C112.232 31.608 110.419 31.2453 108.904 30.52C107.389 29.7733 106.141 28.8027 105.16 27.608C104.2 26.392 103.496 25.0907 103.048 23.704C102.6 22.296 102.376 20.9307 102.376 19.608V18.904C102.376 17.4533 102.611 16.024 103.08 14.616C103.549 13.1867 104.264 11.896 105.224 10.744C106.205 9.592 107.432 8.67467 108.904 7.992C110.397 7.288 112.157 6.936 114.184 6.936C116.296 6.936 118.152 7.33067 119.752 8.12C121.373 8.90933 122.664 10.008 123.624 11.416C124.605 12.824 125.192 14.456 125.384 16.312H120.104C119.869 14.9253 119.219 13.8373 118.152 13.048C117.085 12.2373 115.763 11.832 114.184 11.832C112.093 11.832 110.483 12.5253 109.352 13.912C108.243 15.2773 107.688 17.0693 107.688 19.288C107.688 20.76 107.944 22.0613 108.456 23.192C108.968 24.3013 109.715 25.1653 110.696 25.784C111.699 26.4027 112.915 26.712 114.344 26.712C115.965 26.712 117.331 26.3173 118.44 25.528C119.571 24.7387 120.253 23.6507 120.488 22.264H125.736C125.544 23.992 124.968 25.56 124.008 26.968C123.069 28.376 121.779 29.5067 120.136 30.36C118.515 31.192 116.584 31.608 114.344 31.608ZM140.418 31.608C138.306 31.608 136.46 31.2453 134.882 30.52C133.324 29.7733 132.034 28.8027 131.01 27.608C129.986 26.392 129.218 25.0907 128.706 23.704C128.215 22.296 127.97 20.9307 127.97 19.608V18.904C127.97 17.4533 128.226 16.024 128.738 14.616C129.271 13.208 130.06 11.928 131.106 10.776C132.151 9.60267 133.452 8.67467 135.01 7.992C136.567 7.288 138.37 6.936 140.418 6.936C142.466 6.936 144.268 7.288 145.826 7.992C147.383 8.67467 148.684 9.60267 149.73 10.776C150.775 11.928 151.564 13.208 152.098 14.616C152.631 16.024 152.898 17.4533 152.898 18.904V19.608C152.898 20.9307 152.642 22.296 152.13 23.704C151.618 25.0907 150.85 26.392 149.826 27.608C148.802 28.8027 147.5 29.7733 145.922 30.52C144.364 31.2453 142.53 31.608 140.418 31.608ZM140.418 26.712C141.89 26.712 143.159 26.3813 144.226 25.72C145.314 25.0587 146.146 24.1627 146.722 23.032C147.298 21.9013 147.586 20.6533 147.586 19.288C147.586 17.8373 147.287 16.5573 146.69 15.448C146.114 14.3173 145.292 13.432 144.226 12.792C143.159 12.152 141.89 11.832 140.418 11.832C138.946 11.832 137.676 12.152 136.61 12.792C135.543 13.432 134.722 14.3173 134.146 15.448C133.57 16.5573 133.282 17.8373 133.282 19.288C133.282 20.6533 133.57 21.9013 134.146 23.032C134.722 24.1627 135.543 25.0587 136.61 25.72C137.676 26.3813 138.946 26.712 140.418 26.712ZM164.846 31.608C162.734 31.608 160.942 31.2773 159.47 30.616C158.019 29.9547 156.92 29.0373 156.174 27.864C155.448 26.6907 155.086 25.3467 155.086 23.832H160.174C160.174 24.728 160.536 25.5173 161.262 26.2C162.008 26.8613 163.203 27.192 164.846 27.192C166.296 27.192 167.406 26.9147 168.174 26.36C168.942 25.784 169.326 25.048 169.326 24.152C169.326 23.4053 169.006 22.8187 168.366 22.392C167.726 21.944 166.691 21.656 165.262 21.528L163.502 21.368C161.176 21.176 159.32 20.4613 157.934 19.224C156.547 17.9653 155.854 16.2907 155.854 14.2C155.854 12.7067 156.206 11.416 156.91 10.328C157.635 9.24 158.638 8.408 159.918 7.832C161.198 7.23467 162.712 6.936 164.462 6.936C166.296 6.936 167.864 7.256 169.166 7.896C170.488 8.536 171.502 9.432 172.206 10.584C172.91 11.7147 173.262 13.0373 173.262 14.552H168.142C168.142 13.6987 167.832 12.952 167.214 12.312C166.595 11.672 165.678 11.352 164.462 11.352C163.288 11.352 162.414 11.64 161.838 12.216C161.262 12.7707 160.974 13.432 160.974 14.2C160.974 14.8613 161.198 15.4373 161.646 15.928C162.115 16.4187 162.894 16.7067 163.982 16.792L165.774 16.952C167.48 17.1013 168.984 17.4747 170.286 18.072C171.587 18.648 172.6 19.448 173.326 20.472C174.072 21.4747 174.446 22.7013 174.446 24.152C174.446 25.6453 174.051 26.9573 173.262 28.088C172.494 29.1973 171.395 30.0613 169.966 30.68C168.536 31.2987 166.83 31.608 164.846 31.608ZM182.014 31V12.216H175.454V7.64H193.854V12.216H187.262V31H182.014ZM201.898 31.544C199.402 31.544 197.45 31.032 196.042 30.008C194.634 28.984 193.888 27.544 193.802 25.688H198.346C198.41 26.2427 198.741 26.744 199.338 27.192C199.936 27.6187 200.821 27.832 201.994 27.832C202.869 27.832 203.605 27.6827 204.202 27.384C204.8 27.0853 205.098 26.6373 205.098 26.04C205.098 25.528 204.874 25.1227 204.426 24.824C203.978 24.504 203.178 24.28 202.026 24.152L200.65 24.024C198.538 23.7893 196.949 23.2027 195.882 22.264C194.837 21.3253 194.314 20.0987 194.314 18.584C194.314 17.3467 194.624 16.312 195.242 15.48C195.882 14.648 196.746 14.0187 197.834 13.592C198.922 13.1653 200.17 12.952 201.578 12.952C203.84 12.952 205.653 13.4533 207.018 14.456C208.405 15.4373 209.141 16.8667 209.226 18.744H204.682C204.597 18.1893 204.288 17.7093 203.754 17.304C203.242 16.8987 202.496 16.696 201.514 16.696C200.725 16.696 200.096 16.8453 199.626 17.144C199.157 17.4427 198.922 17.848 198.922 18.36C198.922 18.8507 199.125 19.224 199.53 19.48C199.936 19.736 200.597 19.9173 201.514 20.024L202.89 20.152C205.024 20.3867 206.688 20.9947 207.882 21.976C209.098 22.936 209.706 24.216 209.706 25.816C209.706 27.5867 209.002 28.984 207.594 30.008C206.186 31.032 204.288 31.544 201.898 31.544Z" fill="#3346F0"/>
</svg>
